HIERARCHY
ROOT root
{
	OFFSET 0.000000 0.000000 0.000000
	CHANNELS 6 Xposition Yposition Zposition Zrotation Yrotation Xrotation
	JOINT lhip
	{
		OFFSET 0.058581 -0.082280 -0.017664
		CHANNELS 3 Zrotation Yrotation Xrotation
		JOINT lknee
		{
			OFFSET 0.043451 -0.386469 0.008037
			CHANNELS 3 Zrotation Yrotation Xrotation
			JOINT lankle
			{
				OFFSET -0.014790 -0.426874 -0.037428
				CHANNELS 3 Zrotation Yrotation Xrotation
				JOINT ltoe
				{
					OFFSET 0.041054 -0.060286 0.122042
					CHANNELS 3 Zrotation Yrotation Xrotation
					End Site
					{
						OFFSET 0.000000 0.000000 0.000000
					}
				}
			}
		}
	}
	JOINT rhip
	{
		OFFSET -0.060310 -0.090513 -0.013543
		CHANNELS 3 Zrotation Yrotation Xrotation
		JOINT rknee
		{
			OFFSET -0.043257 -0.383688 -0.004843
			CHANNELS 3 Zrotation Yrotation Xrotation
			JOINT rankle
			{
				OFFSET 0.019056 -0.420046 -0.034562
				CHANNELS 3 Zrotation Yrotation Xrotation
				JOINT rtoe
				{
					OFFSET -0.034840 -0.062106 0.130323
					CHANNELS 3 Zrotation Yrotation Xrotation
					End Site
					{
						OFFSET 0.000000 0.000000 0.000000
					}
				}
			}
		}
	}
	JOINT lowerback
	{
		OFFSET 0.004439 0.124404 -0.038385
		CHANNELS 3 Zrotation Yrotation Xrotation
		JOINT upperback
		{
			OFFSET 0.004488 0.137956 0.026820
			CHANNELS 3 Zrotation Yrotation Xrotation
			JOINT chest
			{
				OFFSET -0.002265 0.056032 0.002855
				CHANNELS 3 Zrotation Yrotation Xrotation
				JOINT lowerneck
				{
					OFFSET -0.013390 0.211636 -0.033468
					CHANNELS 3 Zrotation Yrotation Xrotation
					JOINT upperneck
					{
						OFFSET 0.010113 0.088937 0.050410
						CHANNELS 3 Zrotation Yrotation Xrotation
						End Site
						{
							OFFSET 0.000000 0.000000 0.000000
						}
					}
				}
				JOINT lclavicle
				{
					OFFSET 0.071702 0.114000 -0.018898
					CHANNELS 3 Zrotation Yrotation Xrotation
					JOINT lshoulder
					{
						OFFSET 0.122921 0.045205 -0.019046
						CHANNELS 3 Zrotation Yrotation Xrotation
						JOINT lelbow
						{
							OFFSET 0.255332 -0.015649 -0.022946
							CHANNELS 3 Zrotation Yrotation Xrotation
							JOINT lwrist
							{
								OFFSET 0.265709 0.012698 -0.007375
								CHANNELS 3 Zrotation Yrotation Xrotation
								End Site
								{
									OFFSET 0.000000 0.000000 0.000000
								}
							}
						}
					}
				}
				JOINT rclavicle
				{
					OFFSET -0.082954 0.112472 -0.023707
					CHANNELS 3 Zrotation Yrotation Xrotation
					JOINT rshoulder
					{
						OFFSET -0.113228 0.046853 -0.008472
						CHANNELS 3 Zrotation Yrotation Xrotation
						JOINT relbow
						{
							OFFSET -0.260127 -0.014369 -0.031269
							CHANNELS 3 Zrotation Yrotation Xrotation
							JOINT rwrist
							{
								OFFSET -0.269108 0.006794 -0.006027
								CHANNELS 3 Zrotation Yrotation Xrotation
								End Site
								{
									OFFSET 0.000000 0.000000 0.000000
								}
							}
						}
					}
				}
			}
		}
	}
}
MOTION
Frames: 14
Frame Time: 0.033333
0.089657 -1.369833 0.986531 -153.545526 0.180672 92.728282 3.975162 6.434286 0.867623 -2.477482 1.565079 -3.042312 4.361760 11.832736 -10.460079 0.000000 -0.000000 0.000000 -5.499826 -9.753325 -2.594443 2.342522 -8.476828 6.866080 2.462570 -5.685175 -8.267479 0.000000 -0.000000 0.000000 1.759981 1.577414 -7.686027 1.051437 -2.613448 11.337759 -2.385025 0.358768 -5.751093 -1.841527 -2.847209 2.067611 -0.880152 -6.617250 20.656082 -34.920942 -1.734519 3.514064 -52.656559 -6.785553 18.928415 3.163854 -19.164264 5.373168 -3.763691 -11.956888 3.074471 34.193439 5.373491 6.750878 49.956242 6.680446 11.051093 -12.434397 17.939056 -17.703520 5.664218 10.958464 -14.294021 
0.089461 -1.369974 0.986505 -153.850463 0.293359 92.649661 3.967412 6.255700 0.979489 -2.247714 2.022755 -3.006358 3.641349 11.983938 -10.088919 0.000000 -0.000000 0.000000 -5.356319 -9.414435 -2.439098 2.339358 -8.129948 6.572480 2.742843 -6.109924 -8.290439 0.000000 -0.000000 0.000000 2.077410 1.637819 -7.558543 0.937960 -2.559549 10.953589 -2.327600 0.365229 -5.406118 -1.687550 -3.046719 1.815224 -1.210937 -6.918405 21.508382 -34.859921 -1.840541 3.606968 -52.783354 -6.793125 18.923908 3.216242 -19.029276 5.419581 -3.778046 -11.913498 2.963704 34.045703 5.584489 6.912202 50.130157 6.629591 11.134682 -12.633178 17.740719 -17.957936 5.596575 11.005755 -14.497074 
0.089718 -1.369817 0.986376 -154.151009 0.481686 92.615708 3.996764 5.652590 1.080496 -1.902876 2.864000 -3.044755 2.705234 12.334774 -9.881852 0.000000 -0.000000 0.000000 -5.089021 -9.014713 -2.431990 2.321293 -8.015592 6.461165 2.718785 -6.369356 -8.216524 0.000000 -0.000000 0.000000 2.387379 1.763811 -7.639839 0.897993 -2.524955 10.843544 -2.307707 0.349364 -5.288293 -1.571437 -3.038290 2.129355 -1.374676 -7.415752 21.773084 -34.734773 -2.071555 3.759466 -52.957388 -6.731815 18.935430 3.483698 -18.841911 5.100391 -4.120919 -11.994476 2.872448 33.984066 5.829110 7.276332 50.342939 6.447868 11.250091 -13.021558 17.593895 -18.245262 5.419648 10.899704 -14.722494 
0.089660 -1.369908 0.986298 -154.183016 0.500143 92.644719 3.979402 5.531839 1.061697 -1.802546 2.978846 -3.037611 3.211602 12.403043 -9.985361 0.000000 -0.000000 0.000000 -5.057032 -9.000610 -2.512849 2.273272 -7.984699 6.505831 2.733351 -6.382705 -8.192770 0.000000 -0.000000 0.000000 2.465813 1.717297 -7.633183 0.927970 -2.603745 10.951798 -2.321653 0.328378 -5.389594 -1.539650 -3.256410 2.196276 -1.388923 -7.788657 21.853813 -34.689769 -2.152666 3.796292 -52.922426 -6.827711 18.857480 3.672333 -18.802178 4.784470 -3.846962 -12.085858 3.065452 34.130118 5.854486 7.349935 50.299385 6.252529 11.221852 -13.083864 17.333593 -18.246432 5.215313 10.834096 -14.417709 
0.089611 -1.370046 0.986250 -154.191180 0.502799 92.668614 3.959422 5.524834 1.017948 -1.785704 3.008816 -3.019763 3.221871 12.405742 -9.985911 0.000000 -0.000000 0.000000 -5.049720 -8.999604 -2.550983 2.253897 -7.984280 6.495896 2.734501 -6.376216 -8.166354 0.000000 -0.000000 0.000000 2.500993 1.700373 -7.662581 0.936046 -2.621932 10.970673 -2.331114 0.333753 -5.404004 -1.563408 -3.375301 2.262566 -1.431073 -7.887059 21.935797 -34.657180 -2.198491 3.809716 -52.929952 -6.886628 18.873484 3.725514 -18.795454 4.680816 -3.818279 -11.975969 3.048150 34.110386 5.847098 7.398072 50.335289 6.221428 11.233154 -13.066181 17.265680 -18.220700 5.264913 10.787585 -14.405351 
0.089600 -1.370036 0.986253 -154.150976 0.526649 92.674868 4.013316 5.533074 1.006505 -1.854092 3.027033 -3.060344 3.142685 12.382801 -9.955257 0.000000 -0.000000 0.000000 -5.029733 -9.027465 -2.536931 2.249652 -7.982493 6.487283 2.762154 -6.312912 -8.203073 0.000000 -0.000000 0.000000 2.526890 1.686462 -7.682447 0.978808 -2.699032 11.065759 -2.319585 0.305242 -5.458360 -1.598961 -3.546121 2.325720 -1.442634 -8.068201 21.851661 -34.672627 -2.248947 3.739094 -52.826512 -6.939310 18.887566 3.734444 -18.803837 4.554723 -3.715568 -11.849019 3.183428 34.140275 5.828752 7.432157 50.350767 6.068573 11.224133 -13.116412 17.196706 -18.215019 5.525975 10.974859 -14.328248 
0.089445 -1.369633 0.986268 -154.066981 0.523097 92.581213 4.041242 5.511173 1.160876 -1.847579 2.948714 -3.088921 3.187450 12.346668 -9.996812 0.000000 -0.000000 0.000000 -5.048267 -9.089251 -2.315592 2.267931 -7.978847 6.360953 2.755839 -6.286936 -8.225517 0.000000 -0.000000 0.000000 2.514059 1.655073 -7.631379 0.995396 -2.739442 11.124205 -2.279753 0.256990 -5.441945 -1.591754 -3.698271 2.376767 -1.421086 -8.226614 21.795575 -34.664339 -2.214994 3.715068 -52.691675 -7.102521 18.764483 3.664146 -18.928729 4.647289 -3.878507 -11.930066 3.219900 34.134541 5.759632 7.393574 50.412443 6.010818 11.190302 -13.068790 16.981175 -18.152958 5.564462 11.022168 -14.244391 
0.089528 -1.369708 0.986196 -154.108110 0.485518 92.587833 4.019996 5.516329 1.153804 -1.895163 2.958286 -3.097420 3.164068 12.373322 -9.969679 0.000000 -0.000000 0.000000 -5.093259 -9.064632 -2.405069 2.255070 -7.978622 6.485298 2.749347 -6.301268 -8.244372 0.000000 -0.000000 0.000000 2.470741 1.647153 -7.585250 1.002698 -2.689713 11.117567 -2.265514 0.241220 -5.427231 -1.562898 -3.814318 2.237688 -1.400863 -8.402405 21.864935 -34.593904 -2.202178 3.695656 -52.671440 -7.240912 18.757848 3.675602 -18.982453 4.724951 -3.994696 -12.033052 3.266428 34.166131 5.720681 7.348153 50.457161 5.945566 11.175603 -13.035521 16.765954 -18.104437 5.532302 10.969956 -14.191864 
0.089460 -1.369886 0.986136 -154.135828 0.463437 92.645357 3.985821 5.493798 1.093577 -1.896381 2.999032 -3.118925 3.064327 12.337350 -9.924889 0.000000 -0.000000 0.000000 -5.138895 -9.007844 -2.505406 2.282079 -8.021138 6.519405 2.761225 -6.276115 -8.212739 0.000000 -0.000000 0.000000 2.503444 1.649848 -7.658120 1.008444 -2.666494 11.118807 -2.276399 0.221591 -5.419776 -1.605673 -3.831476 2.314933 -1.358622 -8.621557 21.834876 -34.615734 -2.258016 3.700987 -52.678763 -7.323666 18.754687 3.777363 -18.871134 4.643054 -3.959122 -12.347233 3.322105 34.086994 5.733466 7.370262 50.589762 5.896369 11.145747 -13.028692 16.619519 -18.007799 5.428899 10.979980 -14.147588 
0.089331 -1.369624 0.986257 -154.028520 0.501358 92.626381 4.044331 5.503696 1.117726 -1.922506 2.929130 -3.118872 3.036911 12.352234 -9.965449 0.000000 -0.000000 0.000000 -5.069591 -9.039100 -2.393149 2.287873 -8.020387 6.396006 2.694659 -6.370077 -8.167957 0.000000 -0.000000 0.000000 2.488938 1.617355 -7.678887 1.038995 -2.725604 11.167785 -2.251794 0.203651 -5.420326 -1.588764 -4.007147 2.162443 -1.341577 -8.714194 21.953399 -34.612209 -2.263924 3.715447 -52.723283 -7.456430 18.708992 3.806625 -18.734165 4.673236 -3.985524 -12.422365 3.259488 34.132144 5.614852 7.306834 50.518034 5.927144 11.076449 -12.889313 16.517439 -17.832372 5.517898 11.112664 -13.961901 
0.089401 -1.369864 0.986325 -154.111235 0.526148 92.660470 4.070630 5.493963 1.100316 -1.995433 2.832021 -3.181172 2.494701 12.204027 -9.655666 0.000000 -0.000000 0.000000 -5.043866 -8.992840 -2.475716 2.292111 -7.996886 6.408386 2.686644 -6.383802 -8.091465 0.000000 -0.000000 0.000000 2.539230 1.618380 -7.624502 1.052291 -2.702633 11.099452 -2.242011 0.219604 -5.439447 -1.596836 -4.109291 2.124032 -1.372584 -8.722729 21.886542 -34.654394 -2.317926 3.713484 -52.758197 -7.403128 18.812878 3.804663 -18.775218 4.750195 -3.799457 -12.309328 3.394268 34.159153 5.635746 7.301224 50.445689 5.892980 11.060263 -12.881931 16.454098 -17.792545 5.492218 11.066407 -13.847234 
0.089489 -1.369964 0.986396 -154.148060 0.518660 92.697112 4.045078 5.534830 1.019317 -1.933410 2.978932 -3.080886 2.878311 12.326002 -9.966982 0.000000 -0.000000 0.000000 -5.024829 -8.974337 -2.585020 2.233617 -8.012984 6.555194 2.730128 -6.300982 -8.186517 0.000000 -0.000000 0.000000 2.479915 1.633984 -7.654843 1.086665 -2.727357 11.163409 -2.233492 0.211082 -5.517439 -1.554789 -4.104286 2.134873 -1.372513 -8.722544 21.796208 -34.652158 -2.392854 3.735623 -52.797228 -7.334913 18.805879 3.766852 -18.910834 4.489148 -4.001327 -12.253886 3.422737 34.164601 5.750465 7.375241 50.460939 5.833526 11.054707 -12.970263 16.520374 -17.961893 5.698662 11.245031 -13.880199 
0.089529 -1.370010 0.986417 -154.162339 0.537201 92.723082 4.057753 5.547216 0.970218 -1.900492 3.021606 -3.025933 3.141723 12.348475 -10.016811 0.000000 -0.000000 0.000000 -4.998705 -8.949469 -2.613138 2.240385 -7.989179 6.525509 2.749255 -6.322937 -8.216898 0.000000 -0.000000 0.000000 2.514230 1.627547 -7.682301 1.099293 -2.738566 11.139252 -2.256157 0.187335 -5.516986 -1.544434 -4.141600 2.182403 -1.443939 -8.785574 21.693146 -34.679768 -2.399905 3.743767 -52.858851 -7.316950 18.867345 3.724381 -18.843890 4.589367 -4.005155 -12.125223 3.487880 34.091161 5.772853 7.392565 50.517758 5.945276 11.047830 -12.984739 16.478723 -18.053668 5.576052 11.057664 -13.940969 
0.089630 -1.370019 0.986509 -154.172768 0.555305 92.703635 4.066528 5.564673 0.985360 -1.851021 2.987561 -3.017633 3.137997 12.344522 -9.979296 0.000000 -0.000000 0.000000 -4.963439 -8.952230 -2.590173 2.221145 -7.968442 6.502431 2.682777 -6.336520 -8.126723 0.000000 -0.000000 0.000000 2.518380 1.624664 -7.577613 1.091542 -2.734657 11.106802 -2.261326 0.195393 -5.519251 -1.526239 -4.321660 2.102216 -1.387459 -8.872798 21.539536 -34.754831 -2.354353 3.727064 -52.813436 -7.268798 18.935867 3.682945 -18.955804 4.774172 -3.877268 -12.094262 3.541573 34.117854 5.766381 7.308130 50.462936 5.938040 11.069789 -12.973484 16.699203 -18.053088 5.472613 10.991856 -14.038377 
